<?xml version="1.0" encoding="UTF-8"?>
<svg width="54px" height="48px" viewBox="0 0 54 48" version="1.1" xmlns="http://www.w3.org/2000/svg" xmlns:xlink="http://www.w3.org/1999/xlink">
    <!-- Generator: Sketch 48.2 (47327) - http://www.bohemiancoding.com/sketch -->
    <title>Group 5</title>
    <desc>Created with Sketch.</desc>
    <defs></defs>
    <g id="Many-Pixels---OurWork" stroke="none" stroke-width="1" fill="none" fill-rule="evenodd" transform="translate(-254.000000, -1893.000000)">
        <g id="Group-5" transform="translate(255.000000, 1893.000000)">
            <g id="idea" transform="translate(10.000000, 0.000000)" fill="#1B76BC" fill-rule="nonzero">
                <path d="M41.9374668,41.4375 L38.7499668,41.4375 L38.7499668,5.3124668 C38.7499668,2.37847266 36.3714941,0 33.4375,0 L5.8125332,0 C2.87853906,0 0.500066406,2.37847266 0.500066406,5.3124668 C0.499966797,5.89926562 0.975701172,6.375 1.5625,6.375 L4.75,6.375 L4.75,19.7094082 C4.399375,19.7094082 4.04875,19.6563164 3.6874668,19.6563164 C-0.615724609,19.65625 1.50930859,29.0416445 10.0625664,47.8125 L37.6875332,47.8125 C40.6215273,47.8125 43,45.4340273 43,42.5000332 C43,41.9132344 42.5242656,41.4375 41.9374668,41.4375 Z M2.805625,4.2500332 C3.25605859,2.97592969 4.46113281,2.12436914 5.8125332,2.12506641 L29.1875664,2.12506598 C28.7155176,2.75390039 28.3888984,3.4796543 28.2313164,4.2500332 L2.805625,4.2500332 Z M13.2499668,42.5000332 C13.2499668,44.2604297 11.8228633,45.6875332 10.0624668,45.6875332 L10.0624668,42.5000332 L10.6999668,42.5000332 C11.0893398,42.5011289 11.4480332,42.2890605 11.635,41.9475 C13.898125,37.7825332 15.3750332,34.7968418 15.3750332,31.3224668 C15.3688574,26.1003457 11.8991641,21.5160234 6.87506641,20.0918086 L6.87506641,6.375 L29.1875664,6.375 C29.7742656,6.375 30.25,5.89926562 30.25,5.3124668 C30.25,3.55207031 31.6771035,2.1249668 33.4375,2.1249668 C35.1978965,2.1249668 36.625,3.55207031 36.625,5.3124668 L36.625,41.4375 L14.3125,41.4375 C13.7257012,41.4375 13.2499668,41.9132344 13.2499668,42.5000332 Z M37.6875332,45.6875332 L14.3125,45.6875336 C14.7845488,45.0586992 15.111168,44.3329453 15.26875,43.5625664 L40.6943418,43.5625664 C40.2439082,44.8366699 39.0389336,45.6882305 37.6875332,45.6875332 Z" id="Shape"></path>
                <path d="M27.0625,19.125 L33.4375,19.125 C34.0242988,19.125 34.5000332,18.6492656 34.5000332,18.0624668 L34.5000332,11.6874668 C34.5000332,11.100668 34.0242988,10.6249336 33.4375,10.6249336 L27.0625,10.6249336 C26.4757012,10.6249336 25.9999668,11.100668 25.9999668,11.6874668 L25.9999668,18.0624668 C25.9999668,18.6492656 26.4757012,19.125 27.0625,19.125 Z M28.1250332,12.75 L32.3750664,12.75 L32.3750664,17.0000332 L28.1250332,17.0000332 L28.1250332,12.75 Z" id="Shape"></path>
                <path d="M27.0625,30.8124668 L33.4375,30.8124668 C34.0242988,30.8124668 34.5000332,30.3367324 34.5000332,29.7499336 L34.5000332,23.3749336 C34.5000332,22.7881348 34.0242988,22.3124004 33.4375,22.3124004 L27.0625,22.3124004 C26.4757012,22.3124004 25.9999668,22.7881348 25.9999668,23.3749336 L25.9999668,29.7499336 C25.9999668,30.336832 26.4757012,30.8124668 27.0625,30.8124668 Z M28.1250332,24.4374668 L32.3750664,24.4374668 L32.3750664,28.6875 L28.1250332,28.6875 L28.1250332,24.4374668 Z" id="Shape"></path>
                <rect id="Rectangle-path" x="13.2499668" y="10.6250332" width="8.4999668" height="2.1249668"></rect>
                <rect id="Rectangle-path" x="13.2499668" y="17.0000332" width="8.4999668" height="2.1249668"></rect>
                <rect id="Rectangle-path" x="25.9999668" y="35.0625" width="8.4999668" height="2.1249668"></rect>
            </g>
            <circle id="Oval-2" stroke="#1B76BC" stroke-width="2" fill="#FFFFFF" cx="12.5" cy="32.5" r="12.5"></circle>
            <polyline id="Path-26" stroke="#87C144" stroke-width="2" stroke-linecap="round" points="8 33.6538174 10.5077048 37 17 28"></polyline>
        </g>
    </g>
</svg>