<?xml version="1.0" encoding="UTF-8"?>
<svg width="50px" height="51px" viewBox="0 0 50 51" version="1.1" xmlns="http://www.w3.org/2000/svg" xmlns:xlink="http://www.w3.org/1999/xlink">
    <!-- Generator: Sketch 48.2 (47327) - http://www.bohemiancoding.com/sketch -->
    <title>stick-man</title>
    <desc>Created with Sketch.</desc>
    <defs></defs>
    <g id="Many-Pixels---OurWork" stroke="none" stroke-width="1" fill="none" fill-rule="evenodd" transform="translate(-603.000000, -1891.000000)">
        <g id="stick-man" transform="translate(603.000000, 1891.000000)" fill-rule="nonzero">
            <path d="M24.3637234,12.8880573 C24.5145745,13.0909745 24.75,13.2101911 25,13.2101911 C25.25,13.2101911 25.4854255,13.0909745 25.6362766,12.8880573 L30.627766,6.17273248 C31.1282979,5.49955414 31.392766,4.69665605 31.392766,3.85098726 C31.3928723,1.72761146 29.6956383,0 27.6092553,0 C26.6245745,0 25.6938298,0.391 25,1.06374522 C24.3061702,0.391 23.3754255,0 22.3907447,0 C20.3044681,0 18.607234,1.72761146 18.607234,3.85098726 C18.607234,4.69676433 18.8717021,5.49966242 19.3721277,6.17273248 L24.3637234,12.8880573 Z M22.3907447,1.62420382 C23.183617,1.62420382 23.9162766,2.06328025 24.3029787,2.77013376 C24.4437234,3.0276242 24.7105319,3.1872293 25.0001064,3.1872293 C25.2896809,3.1872293 25.556383,3.0276242 25.697234,2.77013376 C26.0838298,2.06328025 26.816383,1.62420382 27.6092553,1.62420382 C28.8156383,1.62420382 29.7970213,2.62319745 29.7970213,3.85098726 C29.7970213,4.34008917 29.6442553,4.80396178 29.3552128,5.19279618 L25,11.0520573 L20.6446809,5.1926879 C20.3556383,4.80396178 20.2029787,4.33998089 20.2029787,3.85087898 C20.2028723,2.62319745 21.1843617,1.62420382 22.3907447,1.62420382 Z" id="Shape" fill="#CB5656"></path>
            <path d="M18.0838298,24.633758 C21.382766,24.633758 24.0665957,21.9019554 24.0665957,18.544293 C24.0665957,15.1866306 21.3826596,12.454828 18.0838298,12.454828 C14.785,12.454828 12.1010638,15.1865223 12.1010638,18.544293 C12.1010638,21.9020637 14.785,24.633758 18.0838298,24.633758 Z M18.0838298,14.0790318 C20.5028723,14.0790318 22.4708511,16.0821083 22.4708511,18.544293 C22.4708511,21.0064777 20.5029787,23.0095541 18.0838298,23.0095541 C15.6646809,23.0095541 13.6968085,21.0063694 13.6968085,18.544293 C13.6968085,16.0822166 15.6647872,14.0790318 18.0838298,14.0790318 Z" id="Shape" fill="#1B76BC"></path>
            <path d="M18.077766,21.3853503 C19.0054255,21.3853503 19.8703191,20.9171465 20.3911702,20.1327643 C20.6379787,19.7611465 20.5421277,19.2563439 20.1770213,19.0051338 C19.8121277,18.7540318 19.3160638,18.8515924 19.0692553,19.2231019 C18.8454255,19.5600701 18.4747872,19.7611465 18.077766,19.7611465 C17.6859574,19.7611465 17.3179787,19.5640764 17.093617,19.2340382 C16.8429787,18.8652357 16.3460638,18.7730892 15.9834043,19.028414 C15.6211702,19.2836306 15.5306383,19.7895159 15.7814894,20.1583185 C16.3039362,20.9266752 17.162234,21.3853503 18.077766,21.3853503 Z" id="Shape" fill="#1B76BC"></path>
            <path d="M19.017234,30.999121 C19.017234,34.3568917 21.7011702,37.088586 25,37.088586 C28.2988298,37.088586 30.982766,34.3567834 30.982766,30.999121 C30.982766,27.6414586 28.2989362,24.9095478 25,24.9095478 C21.7010638,24.9095478 19.017234,27.6413503 19.017234,30.999121 Z M29.3870213,30.999121 C29.3870213,33.4613057 27.4190426,35.4643822 25,35.4643822 C22.5809574,35.4643822 20.6129787,33.4611975 20.6129787,30.999121 C20.6129787,28.5370446 22.5809574,26.5338599 25,26.5338599 C27.4190426,26.5338599 29.3870213,28.5369363 29.3870213,30.999121 Z" id="Shape" fill="#1B76BC"></path>
            <path d="M24.0096809,31.6888662 C23.7590426,31.3200637 23.2621277,31.2278089 22.8994681,31.483242 C22.537234,31.7384586 22.4467021,32.2443439 22.6975532,32.6131465 C23.22,33.3815032 24.0782979,33.8401783 24.9938298,33.8401783 C25.9214894,33.8401783 26.786383,33.3719745 27.307234,32.5875924 C27.5540426,32.2159745 27.4581915,31.711172 27.0930851,31.4599618 C26.7281915,31.2087516 26.2321277,31.3065287 25.9853191,31.6779299 C25.7614894,32.0148981 25.3908511,32.2159745 24.9938298,32.2159745 C24.6021277,32.2159745 24.2341489,32.0189045 24.0096809,31.6888662 Z" id="Shape" fill="#1B76BC"></path>
            <path d="M11.167766,37.088586 C14.4667021,37.088586 17.1505319,34.3567834 17.1505319,30.999121 C17.1505319,27.6414586 14.4665957,24.9096561 11.167766,24.9096561 C7.86893617,24.9096561 5.185,27.6414586 5.185,30.999121 C5.185,34.3567834 7.86882979,37.088586 11.167766,37.088586 Z M11.167766,26.5337516 C13.5868085,26.5337516 15.5547872,28.5369363 15.5547872,30.9990127 C15.5547872,33.4610892 13.5868085,35.4642739 11.167766,35.4642739 C8.7487234,35.4642739 6.78074468,33.4610892 6.78074468,30.9990127 C6.78074468,28.5369363 8.74861702,26.5337516 11.167766,26.5337516 Z" id="Shape" fill="#1B76BC"></path>
            <path d="M11.167766,33.8401783 C12.0954255,33.8401783 12.9603191,33.3719745 13.4811702,32.5875924 C13.7279787,32.2159745 13.6321277,31.711172 13.2670213,31.4599618 C12.9021277,31.2087516 12.4060638,31.3065287 12.1592553,31.6779299 C11.9354255,32.0148981 11.5647872,32.2159745 11.167766,32.2159745 C10.7759574,32.2159745 10.4079787,32.0189045 10.183617,31.6888662 C9.93297872,31.3200637 9.43617021,31.2278089 9.07340426,31.483242 C8.71117021,31.7384586 8.6206383,32.2443439 8.87148936,32.6131465 C9.39393617,33.3815032 10.252234,33.8401783 11.167766,33.8401783 Z" id="Shape" fill="#1B76BC"></path>
            <path d="M16.0624468,40.7373057 C16.2395745,40.326707 16.0561702,39.8475669 15.6526596,39.667172 C14.2357447,39.0338408 12.7268085,38.7127898 11.1676596,38.7127898 C5.00989362,38.7126815 0,43.8119236 0,50.0796178 C0,50.5281146 0.35712766,50.8917197 0.79787234,50.8917197 C1.23861702,50.8917197 1.59574468,50.5281146 1.59574468,50.0796178 C1.59574468,44.7075096 5.88968085,40.3368854 11.167766,40.3368854 C12.5045745,40.3368854 13.797766,40.6119172 15.0111702,41.154293 C15.4147872,41.3344713 15.8853191,41.1479045 16.0624468,40.7373057 Z" id="Shape" fill="#1B76BC"></path>
            <path d="M32.8494681,30.999121 C32.8494681,34.3568917 35.5334043,37.088586 38.832234,37.088586 C42.1310638,37.088586 44.815,34.3567834 44.815,30.999121 C44.815,27.6414586 42.1310638,24.9096561 38.832234,24.9096561 C35.5334043,24.9096561 32.8494681,27.6413503 32.8494681,30.999121 Z M38.832234,26.5337516 C41.2512766,26.5337516 43.2192553,28.5369363 43.2192553,30.9990127 C43.2192553,33.4610892 41.2512766,35.4642739 38.832234,35.4642739 C36.4131915,35.4642739 34.4452128,33.4610892 34.4452128,30.9990127 C34.4452128,28.5369363 36.4131915,26.5337516 38.832234,26.5337516 Z" id="Shape" fill="#1B76BC"></path>
            <path d="M38.8261702,33.8401783 C39.7538298,33.8401783 40.6187234,33.3719745 41.1395745,32.5875924 C41.386383,32.2159745 41.2905319,31.711172 40.9254255,31.4599618 C40.5606383,31.2087516 40.0643617,31.3065287 39.8176596,31.6779299 C39.5938298,32.0148981 39.2231915,32.2159745 38.8261702,32.2159745 C38.4343617,32.2159745 38.066383,32.0189045 37.8420213,31.6888662 C37.591383,31.3200637 37.0944681,31.2278089 36.7318085,31.483242 C36.3695745,31.7384586 36.2790426,32.2443439 36.5298936,32.6131465 C37.0523404,33.3815032 37.9106383,33.8401783 38.8261702,33.8401783 Z" id="Shape" fill="#1B76BC"></path>
            <path d="M38.832234,38.7126815 C37.2731915,38.7126815 35.7642553,39.0337325 34.3474468,39.6670637 C33.9439362,39.8474586 33.7605319,40.3264904 33.9376596,40.7371975 C34.1147872,41.1479045 34.5854255,41.3344713 34.9890426,41.154293 C36.2023404,40.6119172 37.4954255,40.3369936 38.832234,40.3369936 C44.1102128,40.3369936 48.4042553,44.7075096 48.4042553,50.0797261 C48.4042553,50.5282229 48.761383,50.891828 49.2021277,50.891828 C49.6428723,50.891828 50,50.5282229 50,50.0797261 C50,43.8119236 44.9902128,38.7126815 38.832234,38.7126815 Z" id="Shape" fill="#1B76BC"></path>
            <path d="M25,38.7127898 C18.8420213,38.7127898 13.832234,43.8119236 13.832234,50.0796178 C13.832234,50.5281146 14.1893617,50.8917197 14.6301064,50.8917197 C15.0708511,50.8917197 15.4279787,50.5281146 15.4279787,50.0796178 C15.4279787,44.7075096 19.7219149,40.3369936 25,40.3369936 C30.2780851,40.3369936 34.5720213,44.7075096 34.5720213,50.0796178 C34.5720213,50.5281146 34.9291489,50.8917197 35.3698936,50.8917197 C35.8106383,50.8917197 36.167766,50.5281146 36.167766,50.0796178 C36.167766,43.8119236 31.1579787,38.7127898 25,38.7127898 Z" id="Shape" fill="#1B76BC"></path>
            <path d="M25.9332979,18.544293 C25.9332979,21.9020637 28.617234,24.633758 31.9160638,24.633758 C35.2148936,24.633758 37.8988298,21.9019554 37.8988298,18.544293 C37.8988298,15.1866306 35.2148936,12.454828 31.9160638,12.454828 C28.617234,12.454828 25.9332979,15.1865223 25.9332979,18.544293 Z M31.9161702,14.0790318 C34.3352128,14.0790318 36.3031915,16.0821083 36.3031915,18.544293 C36.3031915,21.0064777 34.3352128,23.0095541 31.9161702,23.0095541 C29.4971277,23.0095541 27.5291489,21.0063694 27.5291489,18.544293 C27.5291489,16.0822166 29.4970213,14.0790318 31.9161702,14.0790318 Z" id="Shape" fill="#1B76BC"></path>
            <path d="M31.91,21.3853503 C32.8376596,21.3853503 33.7025532,20.9171465 34.2234043,20.1327643 C34.4702128,19.7611465 34.3743617,19.2563439 34.0092553,19.0051338 C33.6443617,18.7540318 33.1482979,18.8515924 32.9014894,19.2231019 C32.6776596,19.5600701 32.3070213,19.7611465 31.91,19.7611465 C31.5181915,19.7611465 31.1502128,19.5640764 30.9258511,19.2340382 C30.6751064,18.8652357 30.1782979,18.7730892 29.8156383,19.028414 C29.4534043,19.2836306 29.3628723,19.7895159 29.6137234,20.1583185 C30.1361702,20.9266752 30.9945745,21.3853503 31.91,21.3853503 Z" id="Shape" fill="#1B76BC"></path>
        </g>
    </g>
</svg>