<?xml version="1.0" encoding="UTF-8"?>
<svg width="63px" height="45px" viewBox="0 0 63 45" version="1.1" xmlns="http://www.w3.org/2000/svg" xmlns:xlink="http://www.w3.org/1999/xlink">
    <!-- Generator: Sketch 48.2 (47327) - http://www.bohemiancoding.com/sketch -->
    <title>Group 6</title>
    <desc>Created with Sketch.</desc>
    <defs></defs>
    <g id="Many-Pixels---OurWork" stroke="none" stroke-width="1" fill="none" fill-rule="evenodd" transform="translate(-927.000000, -1895.000000)">
        <g id="Group" transform="translate(927.000000, 1888.000000)" fill-rule="nonzero">
            <g id="Group-6" transform="translate(0.000000, 7.000000)">
                <g id="boy-broad-smile" transform="translate(33.000000, 0.000000)">
                    <path d="M8.43547619,19.64464 C8.74547619,19.64464 9.03690476,19.76632 9.25611111,19.98728 C9.38007937,20.11224 9.54253968,20.1748 9.70507937,20.17472 C9.86753968,20.17472 10.0300794,20.11224 10.1540476,19.98728 C10.4020635,19.73736 10.4020635,19.33216 10.1540476,19.08216 C9.695,18.61944 9.08468254,18.36464 8.43555556,18.36464 C7.78642857,18.36464 7.17611111,18.61944 6.71706349,19.08216 C6.46904762,19.33208 6.46904762,19.73728 6.71706349,19.98728 C6.96507937,20.23728 7.36706349,20.2372 7.61492063,19.98728 C7.83404762,19.76632 8.12547619,19.64464 8.43547619,19.64464 Z" id="Shape" fill="#1B76BC"></path>
                    <path d="M19.8649206,19.08216 C19.6169048,19.33208 19.6169048,19.73728 19.8649206,19.98728 C20.1128571,20.2372 20.5148413,20.2372 20.7627778,19.98728 C21.2152381,19.53112 21.9515873,19.5312 22.4040476,19.98728 C22.5280159,20.11224 22.6904762,20.17472 22.8530159,20.17472 C23.0155556,20.17472 23.1780159,20.11224 23.3019841,19.98728 C23.55,19.73736 23.55,19.33216 23.3019841,19.08216 C22.3545238,18.12704 20.812619,18.12696 19.8649206,19.08216 Z" id="Shape" fill="#1B76BC"></path>
                    <path d="M21.58,25.39576 C17.9569841,29.04776 12.0619841,29.04776 8.43888889,25.39576 C8.19095238,25.14584 7.78896825,25.14584 7.54103175,25.39576 C7.29301587,25.64568 7.29301587,26.05096 7.54103175,26.30088 C9.60007937,28.3764 12.3047619,29.41416 15.0094444,29.41416 C17.7142063,29.41416 20.4188889,28.3764 22.4779365,26.30088 C22.7259524,26.05096 22.7259524,25.64576 22.4779365,25.39576 C22.23,25.14584 21.8279365,25.14584 21.58,25.39576 Z" id="Shape" fill="#CB5656"></path>
                    <path d="M29.9905556,20.33424 C29.9905556,18.59576 28.7437302,17.14616 27.1043651,16.84384 L27.1043651,6.1372 C27.1043651,4.74824 26.4188889,3.46056 25.2707143,2.69264 C24.1922222,1.97144 22.8534921,1.80776 21.6428571,2.23776 L17.6566667,0.87392 C14.5936508,-0.17416 11.3694444,-0.28168 8.33269841,0.56288 C4.35714286,1.66856 2.07793651,4.00664 1.72611111,7.33016 C1.4147619,7.74408 1.16738095,8.20896 0.999285714,8.71056 L0.690079365,9.63304 C0.524126984,10.12832 0.707063492,10.6488 1.14547619,10.92816 C1.58380952,11.20752 2.12880952,11.15104 2.50150794,10.78744 C2.62880952,10.6632 2.76801587,10.55856 2.91452381,10.47104 L2.91452381,16.84384 C1.27515873,17.14616 0.0283333333,18.59568 0.0283333333,20.33424 C0.0283333333,22.14232 1.3768254,23.63792 3.11309524,23.85536 C3.54912698,26.28224 4.69492063,28.52088 6.44690476,30.31232 C8.73428571,32.6512 11.7750794,33.9392 15.0094444,33.9392 C15.0098413,33.9392 15.0102381,33.9392 15.0106349,33.9392 C18.240873,33.93888 21.2776984,32.67072 23.5618254,30.3684 C25.3460317,28.56992 26.504127,26.30848 26.9257937,23.8528 C28.652381,23.62632 29.9905556,22.13528 29.9905556,20.33424 Z M24.5686508,3.75928 C25.3731746,4.29728 25.8345238,5.164 25.8345238,6.1372 L25.8345238,14.51232 C23.8638095,14.2036 22.3506349,12.48168 22.3506349,10.41 L22.2980952,3.3732 C23.0734127,3.1672 23.8819048,3.3 24.5686508,3.75928 Z M2.07896825,9.48832 L2.20238095,9.12024 C2.52563492,8.15584 3.24349206,7.37288 4.1718254,6.97224 C5.10007937,6.5716 6.15761905,6.58824 7.07309524,7.01808 C8.99579365,7.92072 11.3201587,7.43272 12.7253968,5.83144 L12.8826984,5.65216 C13.1150794,5.38744 13.0904762,4.98296 12.8278571,4.7488 C12.5651587,4.51464 12.1638889,4.53936 11.9315873,4.80408 L11.7742857,4.98336 C10.7387302,6.16336 9.02595238,6.52288 7.60920635,5.85776 C6.36690476,5.27448 4.93174603,5.25184 3.67198413,5.7956 C3.55730159,5.84512 3.44579365,5.9004 3.33603175,5.95824 C4.07404762,3.97496 5.8602381,2.57832 8.67055556,1.79672 C11.4611111,1.02056 14.4273016,1.12064 17.2486508,2.08592 L21.028254,3.37912 L21.0777778,6.68608 C19.3948413,8.99256 16.9403968,10.55392 14.1434127,11.0908 C11.2793651,11.64048 8.35761905,11.0588 5.91619048,9.45288 C4.72325397,8.66832 3.21920635,8.70184 2.07896825,9.48832 Z M1.2981746,20.33424 C1.2981746,19.3052 1.98142857,18.43448 2.91452381,18.15744 L2.91452381,21.6264 C2.91452381,21.92608 2.9252381,22.22408 2.94611111,22.52016 C1.99698413,22.25352 1.2981746,21.37488 1.2981746,20.33424 Z M22.6639683,29.4632 C20.6196825,31.52384 17.9016667,32.6588 15.0105556,32.65912 C15.0100794,32.65912 15.01,32.65912 15.0094444,32.65912 C12.1179365,32.65912 9.39793651,31.5064 7.35119048,29.41368 C5.30904762,27.32552 4.18436508,24.55992 4.18436508,21.62632 L4.18436508,10.16928 C4.54396825,10.19632 4.90079365,10.3136 5.22206349,10.52488 C7.94,12.31264 11.1925397,12.96024 14.3807937,12.34824 C16.9688095,11.85144 19.2937302,10.5672 21.0807143,8.6732 L21.0807143,10.40992 C21.0807143,13.1884 23.1614286,15.48488 25.8344444,15.80272 L25.8344444,21.74736 C25.8345238,24.66208 24.7085714,27.40232 22.6639683,29.4632 Z M27.0798413,22.51808 C27.0955556,22.26256 27.1043651,22.00568 27.1043651,21.74744 L27.1043651,18.15744 C28.0374603,18.43448 28.7207143,19.3052 28.7207143,20.33424 C28.7207143,21.37224 28.0254762,22.24912 27.0798413,22.51808 Z" id="Shape" fill="#1B76BC"></path>
                </g>
                <g id="smiling-girl" transform="translate(0.000000, 11.000000)">
                    <path d="M16.7097684,25.6624265 C15.5036213,26.8922275 13.5411035,26.8922275 12.3350354,25.6624265 C12.0881798,25.4107299 11.6879482,25.4107299 11.4410926,25.6624265 C11.194158,25.9141232 11.194158,26.3222038 11.4410926,26.5739005 C12.2906267,27.4400948 13.4065341,27.8731517 14.5224414,27.8731517 C15.6383488,27.8731517 16.7542561,27.4400948 17.6037902,26.5739005 C17.8507248,26.3222038 17.8507248,25.9141232 17.6037902,25.6624265 C17.3569346,25.4107299 16.956624,25.4107299 16.7097684,25.6624265 Z" id="Shape" fill="#CB5656"></path>
                    <path d="M28.8279755,32.0569242 C27.347158,30.3849621 27.2844959,26.1246493 27.4597602,21.7165735 C28.1047929,21.0988531 28.5088965,20.2224265 28.5088965,19.25109 C28.5088965,18.398109 28.1970872,17.6184455 27.6844905,17.0226398 C27.8998965,12.5265829 28.014158,9.51991943 26.6154414,6.74368246 C25.6612071,4.84935071 24.1171744,3.2665782 22.0263297,2.03935545 C19.5894605,0.609099526 16.8097275,-0.0929763033 13.9873243,0.00990995261 C11.5081798,0.099985782 9.20011172,1.27765877 7.60850954,3.25360664 C5.55338147,3.37824645 3.68386921,4.51861611 2.67803542,6.28113744 C2.59166757,6.4324455 2.50814441,6.5880237 2.42975749,6.7436019 C1.03025068,9.52136967 1.14443324,12.5277915 1.35983924,17.0233649 C0.847558583,17.61909 0.536065395,18.3984313 0.536065395,19.25109 C0.536065395,20.2221043 0.939852861,21.0982891 1.58456948,21.7160095 C1.75983379,26.1244076 1.69717166,30.3850427 0.216354223,32.0570047 C0.0763324251,32.2150806 0.0219673025,32.4335829 0.0711171662,32.6406445 C0.12026703,32.8477062 0.266610354,33.0166588 0.462024523,33.0919905 C2.12877384,33.7341232 3.74297548,33.9637441 5.19985014,33.9637441 C6.71330245,33.9637441 8.05694278,33.7157536 9.11176839,33.4249005 C10.9446158,32.9195735 12.2373678,32.2102464 12.6784523,31.9484787 C13.2787602,32.0493507 13.8945559,32.1027678 14.5224414,32.1027678 C15.1501689,32.1027678 15.7658065,32.0494313 16.3659564,31.9485592 C16.8071199,32.2104076 18.0997929,32.9195735 19.9324823,33.4249005 C21.3395749,33.8128389 22.6440218,33.9645498 23.8240926,33.9645498 C25.7898501,33.9645498 27.4101362,33.5434171 28.5822262,33.0918294 C28.7777193,33.0164976 28.9239837,32.8476256 28.9731335,32.6404834 C29.0223624,32.4335024 28.9679973,32.2150806 28.8279755,32.0569242 Z M25.8221689,20.5815213 L25.8221689,17.3817346 C25.822327,17.3732749 25.822327,17.3647346 25.8221689,17.3561943 L25.8221689,17.2581422 C26.6465749,17.5307062 27.2445123,18.3208436 27.2445123,19.2510095 C27.2445123,20.1885877 26.6372507,20.9842844 25.8026512,21.2506445 C25.8151362,21.0291611 25.8221689,20.8062275 25.8221689,20.5815213 Z M3.55435695,7.33263981 C3.62270845,7.19704265 3.69548501,7.06136493 3.77079019,6.92947393 C4.60341417,5.47045498 6.19588556,4.55164929 7.92671935,4.53158768 C7.92869482,4.53158768 7.93343597,4.53150711 7.93549046,4.53142654 C8.12750681,4.52731754 8.30719619,4.43450237 8.4240654,4.27916588 C9.7883297,2.46467773 11.8324741,1.37812796 14.0323651,1.29812322 C16.6177902,1.20409953 19.1640218,1.84679621 21.3954414,3.15652133 C23.2717493,4.25781517 24.6496049,5.66285308 25.4906839,7.33263981 C26.6102262,9.55472512 26.6434142,11.9718673 26.4598529,16.1251043 C26.2566158,16.0389763 26.0432643,15.9731517 25.8221689,15.9294028 L25.8221689,15.2739763 C25.8221689,14.9180237 25.5391226,14.6294265 25.1900163,14.6294265 C24.8409101,14.6294265 24.5578638,14.9180237 24.5578638,15.2739763 L24.5578638,16.7378294 C15.8500409,16.8326588 11.136079,12.5561517 9.87825341,11.2181469 C9.73025068,11.0607156 9.51421253,10.9902986 9.30433787,11.0308246 C9.09422616,11.0713507 8.91848774,11.2174218 8.83717711,11.4190853 C7.91858038,13.6974076 6.31362398,14.8894218 3.78643597,15.1702844 C3.46569755,15.2058957 3.22279292,15.4820853 3.22279292,15.8110474 L3.22279292,15.9293223 C3.00146049,15.9730711 2.78787193,16.0389763 2.58447684,16.1252654 C2.40083651,11.9729953 2.43426158,9.55593365 3.55435695,7.33263981 Z M3.24223161,21.2507251 C2.40763215,20.9843649 1.80037057,20.1886682 1.80037057,19.25109 C1.80037057,18.3208436 2.3983079,17.5307062 3.2227139,17.2582227 L3.2227139,20.5815213 C3.2227139,20.8062275 3.22974659,21.0291611 3.24223161,21.2507251 Z M1.69796185,32.1584408 C2.82524796,30.1965924 3.02074114,26.9352512 2.87740054,22.4849573 C3.04523706,22.5378104 3.21892098,22.5768057 3.39687193,22.6019431 C4.11586649,26.729237 6.99761308,30.1032938 10.800564,31.45991 C8.97150954,32.2623744 5.50968392,33.3257204 1.69796185,32.1584408 Z M14.5224414,30.8136682 C8.98889373,30.8136682 4.48701907,26.2235071 4.48701907,20.5814408 L4.48709809,16.3735782 C6.85790736,15.9758104 8.54583379,14.7858104 9.61583106,12.7553175 C10.5266049,13.6024976 11.9992044,14.7643791 14.0745613,15.7826872 C17.1950245,17.3138152 20.7190381,18.0689858 24.5578638,18.0271706 L24.5578638,20.5814408 C24.5578638,26.2235877 20.0559891,30.8136682 14.5224414,30.8136682 Z M20.304109,32.1918768 C19.4935313,31.9709573 18.7941335,31.7040332 18.2420272,31.4607156 C22.0461635,30.1047441 24.9289373,26.7301232 25.6480899,22.6019431 C25.8258828,22.5768057 25.9993297,22.537891 26.1670082,22.4851185 C26.0235886,26.9359763 26.2190027,30.1973175 27.346842,32.1590853 C25.1143161,32.8467393 22.7492752,32.8583412 20.304109,32.1918768 Z" id="Shape" fill="#1B76BC"></path>
                    <path d="M6.9666376,18.6713175 C6.719703,18.9230142 6.719703,19.3310948 6.9666376,19.5827915 C7.21349319,19.8344882 7.6137248,19.8344882 7.86058038,19.5827915 C8.26579019,19.1697962 8.9249673,19.1697156 9.33017711,19.5827915 C9.4536049,19.7086398 9.61535695,19.771564 9.77718801,19.771564 C9.93901907,19.771564 10.1007711,19.7086398 10.2241989,19.5827915 C10.4711335,19.3310948 10.4711335,18.9230142 10.2241989,18.6713175 C9.32614714,17.7555735 7.86468937,17.7554929 6.9666376,18.6713175 Z" id="Shape" fill="#1B76BC"></path>
                    <path d="M22.0783243,19.5827915 C22.3252589,19.3310948 22.3252589,18.9230142 22.0783243,18.6713175 C21.1801935,17.7555735 19.7188147,17.7555735 18.8207629,18.6713175 C18.5738283,18.9230142 18.5738283,19.3310948 18.8207629,19.5827915 C19.0676185,19.8344882 19.4678501,19.8344882 19.7147057,19.5827915 C20.1199155,19.1697156 20.7791717,19.1697962 21.1843025,19.5827915 C21.3077302,19.7086398 21.4694823,19.771564 21.6313134,19.771564 C21.7931444,19.771564 21.9548965,19.7086398 22.0783243,19.5827915 Z" id="Shape" fill="#1B76BC"></path>
                </g>
            </g>
        </g>
    </g>
</svg>